<svg xmlns="http://www.w3.org/2000/svg" xmlns:xlink="http://www.w3.org/1999/xlink" width="182" zoomAndPan="magnify" viewBox="0 0 136.5 27.749998" height="37" preserveAspectRatio="xMidYMid meet" version="1.0"><defs><clipPath id="63a2227dd4"><path d="M 0.363281 0 L 135.359375 0 L 135.359375 27 L 0.363281 27 Z M 0.363281 0 " clip-rule="nonzero"/></clipPath><clipPath id="d3bdc320be"><path d="M 0.363281 17 L 68 17 L 68 26.757812 L 0.363281 26.757812 Z M 0.363281 17 " clip-rule="nonzero"/></clipPath><clipPath id="4464aa5957"><path d="M 80 0 L 135.644531 0 L 135.644531 26.757812 L 80 26.757812 Z M 80 0 " clip-rule="nonzero"/></clipPath></defs><g clip-path="url(#63a2227dd4)"><path fill="#d6c6b6" d="M 0.363281 0 L 135.359375 0 L 135.359375 27 L 0.363281 27 Z M 0.363281 0 " fill-opacity="1" fill-rule="nonzero"/></g><g clip-path="url(#d3bdc320be)"><path fill="#ffffff" d="M 0.480469 20.617188 C 0.382812 20.496094 0.382812 20.328125 0.40625 20.207031 C 0.480469 19.988281 0.625 19.816406 0.769531 19.71875 C 0.914062 19.597656 1.109375 19.550781 1.230469 19.5 C 1.351562 19.476562 1.496094 19.425781 1.617188 19.402344 C 2.152344 19.28125 2.710938 19.207031 3.246094 19.183594 C 4.3125 19.109375 5.378906 19.109375 6.449219 19.160156 C 8.5625 19.257812 10.699219 19.355469 12.8125 19.523438 C 14.921875 19.691406 17.035156 19.890625 19.148438 20.058594 C 21.261719 20.253906 23.371094 20.421875 25.488281 20.589844 C 27.597656 20.757812 29.714844 20.90625 31.824219 21 C 33.9375 21.121094 36.074219 21.167969 38.1875 21.167969 C 39.234375 21.144531 40.296875 21.121094 41.34375 21.046875 C 42.390625 20.972656 43.433594 20.902344 44.476562 20.757812 C 45.523438 20.613281 46.542969 20.441406 47.539062 20.175781 C 48.046875 20.054688 48.53125 19.882812 49.019531 19.734375 L 50.136719 19.347656 C 50.5 18.9375 50.933594 18.546875 51.472656 18.230469 C 52.199219 17.769531 52.929688 17.867188 53.65625 18.277344 C 53.851562 18.398438 53.996094 18.546875 54.265625 18.445312 C 54.410156 18.398438 54.554688 18.492188 54.703125 18.570312 C 55.210938 18.8125 55.261719 18.980469 54.992188 19.488281 C 54.628906 20.121094 54.21875 20.726562 53.945312 21.410156 C 53.605469 22.234375 53.4375 23.058594 53.460938 23.933594 C 53.460938 24.324219 53.535156 24.6875 53.679688 25.027344 C 53.824219 25.367188 54.066406 25.515625 54.433594 25.539062 C 55.160156 25.539062 55.792969 25.269531 56.421875 24.953125 C 58.875 23.761719 66.351562 18.640625 67.179688 19.5625 C 67.203125 19.585938 67.203125 19.636719 67.226562 19.730469 C 64.191406 20.097656 58.945312 24.683594 56.15625 25.875 C 54.773438 26.457031 53.121094 26.117188 52.296875 24.5625 C 52.054688 24.101562 51.980469 23.589844 51.933594 23.082031 C 51.910156 22.914062 51.933594 22.71875 51.835938 22.472656 C 51.546875 22.765625 51.25 23.035156 50.984375 23.277344 C 50.816406 23.472656 50.597656 23.640625 50.355469 23.761719 C 49.722656 24.054688 48.949219 23.664062 48.949219 22.988281 C 48.925781 22.0625 49.09375 21.214844 49.433594 20.4375 C 49.410156 20.460938 49.359375 20.484375 49.3125 20.511719 C 48.828125 20.730469 48.292969 20.898438 47.757812 21.019531 C 46.710938 21.3125 45.644531 21.484375 44.578125 21.605469 C 42.441406 21.824219 40.300781 21.847656 38.167969 21.824219 C 33.917969 21.726562 29.695312 21.386719 25.46875 20.996094 L 19.125 20.375 C 17.015625 20.179688 14.902344 19.964844 12.789062 19.8125 C 10.675781 19.644531 8.566406 19.472656 6.449219 19.523438 C 5.378906 19.546875 4.335938 19.597656 3.292969 19.71875 C 2.78125 19.792969 2.273438 19.890625 1.761719 20.011719 C 1.636719 20.035156 1.515625 20.085938 1.394531 20.109375 C 1.273438 20.15625 1.199219 20.183594 1.152344 20.230469 C 1.078125 20.277344 1.03125 20.351562 1.03125 20.375 C 1.03125 20.375 1.03125 20.351562 1.007812 20.351562 C 0.984375 20.351562 0.960938 20.351562 0.960938 20.425781 L 1.007812 20.570312 C 1.03125 20.667969 0.960938 20.789062 0.839844 20.8125 L 0.820312 20.8125 C 0.699219 20.8125 0.578125 20.738281 0.480469 20.617188 Z M 49.910156 23.265625 C 50.179688 23.070312 50.375 22.949219 50.542969 22.804688 C 51.683594 21.832031 52.433594 20.570312 53.214844 19.332031 C 53.335938 19.136719 53.238281 19.015625 53.140625 18.871094 C 53.042969 18.703125 52.875 18.726562 52.75 18.796875 C 52.554688 18.917969 52.339844 19.015625 52.167969 19.160156 C 51.21875 19.9375 50.589844 20.882812 50.15625 22 C 50.007812 22.339844 49.910156 22.734375 49.910156 23.265625 Z M 49.910156 23.265625 " fill-opacity="1" fill-rule="nonzero"/></g><path fill="#ffffff" d="M 82.59375 19.5 C 82.640625 19.695312 82.472656 19.71875 82.375 19.789062 C 81.691406 20.179688 81.015625 20.566406 80.308594 20.957031 C 78.949219 21.757812 77.636719 22.605469 76.230469 23.363281 C 75.503906 23.773438 74.726562 24.117188 73.925781 24.410156 C 72.492188 24.917969 71.640625 23.921875 71.546875 22.808594 C 71.425781 21.496094 71.714844 20.257812 72.398438 19.09375 C 72.761719 18.484375 73.171875 17.878906 73.488281 17.101562 C 72.691406 17.371094 72.179688 17.808594 71.644531 18.265625 C 70.355469 19.359375 69.238281 20.644531 68.054688 21.835938 C 67.90625 21.980469 67.734375 22.101562 67.566406 22.222656 C 67.15625 22.539062 66.839844 22.488281 66.496094 22.101562 C 66.207031 21.761719 66.035156 21.375 66.011719 20.910156 C 65.964844 19.429688 66.59375 18.261719 67.613281 17.269531 C 67.808594 17.070312 68.003906 17.070312 68.246094 17.222656 C 68.777344 17.5625 68.898438 18.046875 68.488281 18.582031 C 68.050781 19.210938 67.636719 19.863281 67.320312 20.570312 C 67.199219 20.835938 67.078125 21.101562 67.054688 21.445312 C 67.441406 21.347656 67.660156 21.125 67.878906 20.882812 C 69.09375 19.644531 70.332031 18.40625 71.644531 17.242188 C 72.007812 16.898438 72.375 16.585938 72.808594 16.34375 C 73.195312 16.125 73.585938 15.980469 74 16.320312 C 74.410156 16.683594 74.628906 17.117188 74.484375 17.679688 C 74.363281 18.089844 74.21875 18.480469 74.023438 18.871094 C 73.636719 19.621094 73.246094 20.375 72.882812 21.152344 C 72.617188 21.6875 72.421875 22.246094 72.328125 22.855469 C 72.328125 22.902344 72.328125 22.976562 72.328125 23.023438 C 72.253906 23.796875 72.425781 23.96875 73.222656 23.847656 C 73.976562 23.726562 74.679688 23.363281 75.359375 23.050781 C 76.71875 22.394531 77.980469 21.617188 79.246094 20.839844 C 80.140625 20.308594 81.089844 19.820312 82.039062 19.359375 C 82.113281 19.335938 82.207031 19.285156 82.304688 19.285156 C 82.449219 19.28125 82.546875 19.378906 82.59375 19.5 Z M 82.59375 19.5 " fill-opacity="1" fill-rule="nonzero"/><g clip-path="url(#4464aa5957)"><path fill="#ffffff" d="M 87.304688 21.519531 C 87.28125 22.050781 87.304688 22.585938 87.40625 23.097656 C 87.503906 23.582031 87.695312 24.046875 87.988281 24.433594 C 88.570312 25.207031 89.589844 25.648438 90.660156 25.867188 C 91.753906 26.0625 92.917969 26.109375 94.082031 26.035156 C 96.390625 25.914062 98.722656 25.453125 101.003906 24.964844 C 103.289062 24.457031 105.570312 23.894531 107.851562 23.289062 C 112.417969 22.148438 116.957031 20.910156 121.59375 20.109375 C 123.925781 19.695312 126.257812 19.425781 128.632812 19.355469 C 129.824219 19.308594 131.011719 19.355469 132.179688 19.5 C 132.785156 19.574219 133.371094 19.695312 133.949219 19.839844 C 134.09375 19.890625 134.238281 19.917969 134.390625 19.964844 L 134.609375 20.039062 C 134.632812 20.039062 134.683594 20.0625 134.730469 20.085938 C 134.777344 20.109375 134.828125 20.132812 134.875 20.160156 C 135.042969 20.257812 135.214844 20.402344 135.285156 20.644531 C 135.332031 20.765625 135.359375 20.933594 135.285156 21.082031 C 135.1875 21.226562 135.042969 21.328125 134.921875 21.304688 C 134.800781 21.304688 134.703125 21.203125 134.726562 21.082031 L 134.726562 21.058594 L 134.75 20.914062 C 134.773438 20.867188 134.726562 20.839844 134.703125 20.867188 C 134.679688 20.867188 134.679688 20.890625 134.679688 20.867188 C 134.679688 20.820312 134.605469 20.746094 134.535156 20.699219 C 134.511719 20.699219 134.511719 20.699219 134.488281 20.675781 C 134.464844 20.675781 134.441406 20.652344 134.390625 20.652344 L 134.191406 20.578125 C 134.046875 20.53125 133.925781 20.480469 133.78125 20.457031 C 133.25 20.289062 132.664062 20.167969 132.105469 20.046875 C 130.964844 19.824219 129.796875 19.753906 128.632812 19.726562 C 126.304688 19.679688 123.949219 19.996094 121.640625 20.410156 C 119.335938 20.796875 117.054688 21.308594 114.769531 21.867188 C 113.632812 22.15625 112.488281 22.449219 111.347656 22.742188 L 107.945312 23.664062 C 103.40625 24.878906 98.867188 26.214844 94.128906 26.800781 C 92.96875 26.921875 91.753906 26.996094 90.511719 26.847656 C 89.902344 26.769531 89.273438 26.648438 88.664062 26.382812 C 88.058594 26.140625 87.476562 25.753906 87.015625 25.21875 C 86.578125 24.6875 86.289062 24.027344 86.121094 23.398438 C 85.976562 22.746094 85.953125 22.085938 85.976562 21.457031 C 86 21.359375 86 21.257812 86 21.164062 C 85.199219 21.894531 85.753906 21.1875 82.71875 23.933594 C 82.550781 24.105469 82.355469 24.226562 82.1875 24.375 C 81.847656 24.640625 81.457031 24.714844 81.046875 24.640625 C 80.417969 24.566406 80.171875 24.277344 80.148438 23.667969 C 80.101562 22.867188 80.34375 22.113281 80.683594 21.414062 C 81.121094 20.464844 81.699219 19.589844 82.480469 18.839844 C 83.234375 18.132812 84.105469 17.722656 85.199219 17.890625 C 85.539062 17.9375 85.851562 18.035156 86.148438 18.230469 C 86.464844 18.398438 86.488281 18.398438 86.609375 18.085938 C 86.898438 17.285156 87.214844 16.484375 87.558594 15.707031 C 89.015625 12.308594 90.90625 9.226562 93.480469 6.53125 C 94.9375 5.027344 96.417969 3.546875 98.140625 2.332031 C 99.210938 1.578125 100.351562 0.921875 101.589844 0.484375 C 102.878906 0.0234375 104.140625 0 105.378906 0.65625 C 106.03125 1.019531 106.421875 1.574219 106.542969 2.28125 C 106.742188 3.152344 106.691406 4.027344 106.46875 4.878906 C 106.203125 6.042969 105.644531 7.085938 104.988281 8.082031 C 103.726562 10.023438 102.148438 11.726562 100.472656 13.351562 C 98.941406 14.808594 97.339844 16.09375 95.589844 17.214844 C 94.132812 18.109375 92.628906 18.890625 91.003906 19.421875 C 90.007812 19.738281 88.992188 19.980469 87.898438 19.859375 C 87.730469 19.835938 87.609375 19.859375 87.511719 19.960938 C 87.429688 20.472656 87.328125 20.980469 87.304688 21.519531 Z M 85.871094 19.742188 C 85.796875 19.402344 85.726562 19.0625 85.484375 18.796875 C 85.242188 18.476562 85.167969 18.453125 84.804688 18.578125 C 84.484375 18.675781 84.195312 18.820312 83.929688 19.015625 C 82.835938 19.863281 82.085938 20.933594 81.550781 22.171875 C 81.355469 22.660156 81.1875 23.167969 81.164062 23.699219 C 81.164062 23.796875 81.117188 23.941406 81.238281 23.988281 C 81.359375 24.066406 81.457031 23.941406 81.554688 23.867188 C 81.699219 23.746094 81.875 23.625 82.019531 23.503906 C 83.28125 22.386719 84.421875 21.148438 85.730469 20.058594 C 85.847656 19.988281 85.921875 19.890625 85.871094 19.742188 Z M 88.226562 19.429688 C 89.03125 19.40625 89.78125 19.1875 90.535156 18.921875 C 92.667969 18.191406 94.589844 17.097656 96.410156 15.816406 C 97.988281 14.722656 99.394531 13.4375 100.730469 12.074219 C 102.210938 10.570312 103.5 8.941406 104.496094 7.09375 C 105.101562 5.953125 105.542969 4.789062 105.542969 3.503906 C 105.542969 2.917969 105.496094 2.335938 105.25 1.777344 C 104.933594 0.976562 104.207031 0.589844 103.332031 0.710938 C 102.652344 0.808594 102.042969 1.074219 101.464844 1.363281 C 100.394531 1.925781 99.398438 2.601562 98.480469 3.378906 C 95.882812 5.511719 93.695312 8.015625 91.851562 10.78125 C 90.152344 13.308594 88.867188 16.027344 87.820312 18.867188 C 87.625 19.402344 87.648438 19.453125 88.226562 19.429688 Z M 88.226562 19.429688 " fill-opacity="1" fill-rule="nonzero"/></g></svg>