<svg xmlns="http://www.w3.org/2000/svg" xmlns:xlink="http://www.w3.org/1999/xlink" width="182" zoomAndPan="magnify" viewBox="0 0 136.5 27.749998" height="37" preserveAspectRatio="xMidYMid meet" version="1.0"><defs><clipPath id="cbf59422d0"><path d="M 0.363281 0 L 135.359375 0 L 135.359375 27 L 0.363281 27 Z M 0.363281 0 " clip-rule="nonzero"/></clipPath><clipPath id="19d57c028b"><path d="M 0.363281 17 L 68 17 L 68 26 L 0.363281 26 Z M 0.363281 17 " clip-rule="nonzero"/></clipPath><clipPath id="1c92285ec8"><path d="M 80 0 L 135.644531 0 L 135.644531 26.757812 L 80 26.757812 Z M 80 0 " clip-rule="nonzero"/></clipPath></defs><g clip-path="url(#cbf59422d0)"><path fill="#ede2d8" d="M 0.363281 0 L 135.359375 0 L 135.359375 27 L 0.363281 27 Z M 0.363281 0 " fill-opacity="1" fill-rule="nonzero"/></g><g clip-path="url(#19d57c028b)"><path fill="#000000" d="M 0.480469 20.441406 C 0.382812 20.320312 0.382812 20.152344 0.40625 20.03125 C 0.480469 19.816406 0.625 19.648438 0.769531 19.550781 C 0.914062 19.429688 1.113281 19.382812 1.234375 19.332031 C 1.355469 19.308594 1.5 19.257812 1.621094 19.234375 C 2.15625 19.117188 2.71875 19.042969 3.25 19.019531 C 4.324219 18.945312 5.390625 18.945312 6.460938 18.996094 C 8.578125 19.09375 10.722656 19.1875 12.835938 19.355469 C 14.953125 19.523438 17.070312 19.71875 19.191406 19.882812 C 21.304688 20.078125 23.421875 20.246094 25.542969 20.414062 C 27.65625 20.578125 29.777344 20.726562 31.894531 20.820312 C 34.007812 20.941406 36.152344 20.988281 38.269531 20.988281 C 39.316406 20.964844 40.382812 20.941406 41.433594 20.867188 C 42.480469 20.792969 43.523438 20.722656 44.574219 20.578125 C 45.621094 20.4375 46.640625 20.265625 47.640625 20 C 48.148438 19.878906 48.636719 19.714844 49.125 19.566406 L 50.242188 19.179688 C 50.605469 18.773438 51.042969 18.386719 51.582031 18.074219 C 52.3125 17.617188 53.042969 17.714844 53.769531 18.121094 C 53.96875 18.242188 54.113281 18.386719 54.378906 18.289062 C 54.523438 18.242188 54.671875 18.335938 54.820312 18.410156 C 55.328125 18.648438 55.382812 18.816406 55.109375 19.320312 C 54.746094 19.945312 54.332031 20.546875 54.0625 21.222656 C 53.71875 22.042969 53.550781 22.859375 53.574219 23.730469 C 53.574219 24.113281 53.648438 24.476562 53.796875 24.8125 C 53.941406 25.152344 54.183594 25.292969 54.546875 25.316406 C 55.277344 25.316406 55.910156 25.054688 56.542969 24.738281 C 59 23.558594 66.496094 18.480469 67.324219 19.394531 C 67.347656 19.417969 67.347656 19.46875 67.371094 19.5625 C 64.328125 19.921875 59.070312 24.472656 56.277344 25.652344 C 54.890625 26.230469 53.234375 25.890625 52.410156 24.351562 C 52.164062 23.890625 52.089844 23.386719 52.042969 22.882812 C 52.019531 22.714844 52.042969 22.523438 51.945312 22.28125 C 51.65625 22.566406 51.359375 22.835938 51.09375 23.078125 C 50.925781 23.269531 50.707031 23.4375 50.460938 23.558594 C 49.828125 23.847656 49.050781 23.460938 49.050781 22.789062 C 49.027344 21.871094 49.199219 21.035156 49.539062 20.261719 C 49.515625 20.285156 49.464844 20.308594 49.417969 20.335938 C 48.929688 20.550781 48.398438 20.71875 47.859375 20.839844 C 46.8125 21.128906 45.742188 21.296875 44.671875 21.417969 C 42.53125 21.636719 40.386719 21.660156 38.25 21.636719 C 33.988281 21.539062 29.757812 21.199219 25.523438 20.816406 L 19.164062 20.199219 C 17.050781 20.003906 14.933594 19.792969 12.8125 19.644531 C 10.699219 19.476562 8.582031 19.304688 6.460938 19.355469 C 5.390625 19.378906 4.347656 19.429688 3.296875 19.550781 C 2.789062 19.625 2.277344 19.71875 1.761719 19.839844 C 1.640625 19.859375 1.519531 19.910156 1.398438 19.933594 C 1.277344 19.980469 1.203125 20.007812 1.15625 20.054688 C 1.078125 20.101562 1.03125 20.175781 1.03125 20.199219 C 1.03125 20.199219 1.03125 20.175781 1.007812 20.175781 C 0.984375 20.175781 0.960938 20.175781 0.960938 20.25 L 1.007812 20.394531 C 1.03125 20.492188 0.960938 20.609375 0.839844 20.632812 L 0.820312 20.632812 C 0.699219 20.632812 0.578125 20.558594 0.480469 20.441406 Z M 50.019531 23.066406 C 50.285156 22.871094 50.480469 22.75 50.652344 22.605469 C 51.792969 21.644531 52.546875 20.394531 53.328125 19.167969 C 53.449219 18.972656 53.351562 18.851562 53.253906 18.707031 C 53.15625 18.539062 52.984375 18.5625 52.863281 18.632812 C 52.667969 18.753906 52.453125 18.851562 52.28125 18.996094 C 51.328125 19.765625 50.699219 20.703125 50.261719 21.8125 C 50.117188 22.148438 50.019531 22.535156 50.019531 23.066406 Z M 50.019531 23.066406 " fill-opacity="1" fill-rule="nonzero"/></g><path fill="#000000" d="M 82.769531 19.332031 C 82.816406 19.527344 82.648438 19.550781 82.550781 19.621094 C 81.867188 20.003906 81.1875 20.390625 80.480469 20.777344 C 79.121094 21.570312 77.804688 22.414062 76.394531 23.164062 C 75.664062 23.570312 74.886719 23.90625 74.082031 24.199219 C 72.644531 24.703125 71.792969 23.71875 71.699219 22.609375 C 71.578125 21.308594 71.867188 20.082031 72.550781 18.929688 C 72.917969 18.328125 73.328125 17.726562 73.648438 16.957031 C 72.847656 17.21875 72.332031 17.65625 71.796875 18.109375 C 70.507812 19.191406 69.386719 20.46875 68.199219 21.648438 C 68.054688 21.792969 67.878906 21.910156 67.710938 22.03125 C 67.300781 22.347656 66.980469 22.296875 66.640625 21.910156 C 66.347656 21.574219 66.175781 21.1875 66.152344 20.730469 C 66.105469 19.261719 66.738281 18.105469 67.757812 17.121094 C 67.957031 16.925781 68.148438 16.925781 68.390625 17.074219 C 68.925781 17.410156 69.046875 17.890625 68.632812 18.421875 C 68.195312 19.046875 67.78125 19.695312 67.464844 20.394531 C 67.34375 20.65625 67.222656 20.921875 67.199219 21.257812 C 67.585938 21.164062 67.804688 20.945312 68.027344 20.703125 C 69.242188 19.476562 70.484375 18.25 71.796875 17.09375 C 72.164062 16.753906 72.527344 16.445312 72.964844 16.203125 C 73.351562 15.984375 73.742188 15.839844 74.15625 16.179688 C 74.570312 16.539062 74.789062 16.972656 74.644531 17.527344 C 74.523438 17.933594 74.378906 18.324219 74.179688 18.707031 C 73.792969 19.453125 73.402344 20.199219 73.039062 20.972656 C 72.773438 21.5 72.574219 22.054688 72.480469 22.65625 C 72.480469 22.703125 72.480469 22.777344 72.480469 22.824219 C 72.40625 23.59375 72.578125 23.765625 73.378906 23.644531 C 74.132812 23.523438 74.839844 23.164062 75.519531 22.851562 C 76.882812 22.203125 78.144531 21.429688 79.414062 20.660156 C 80.3125 20.132812 81.261719 19.652344 82.214844 19.191406 C 82.289062 19.171875 82.382812 19.121094 82.480469 19.121094 C 82.625 19.117188 82.722656 19.210938 82.769531 19.332031 Z M 82.769531 19.332031 " fill-opacity="1" fill-rule="nonzero"/><g clip-path="url(#1c92285ec8)"><path fill="#000000" d="M 87.492188 21.332031 C 87.46875 21.859375 87.492188 22.394531 87.589844 22.898438 C 87.691406 23.378906 87.882812 23.839844 88.175781 24.222656 C 88.761719 24.992188 89.78125 25.425781 90.855469 25.644531 C 91.949219 25.839844 93.117188 25.882812 94.285156 25.8125 C 96.597656 25.691406 98.933594 25.230469 101.222656 24.75 C 103.511719 24.246094 105.796875 23.691406 108.085938 23.089844 C 112.65625 21.957031 117.207031 20.730469 121.855469 19.933594 C 124.191406 19.527344 126.527344 19.257812 128.910156 19.1875 C 130.105469 19.144531 131.292969 19.1875 132.464844 19.332031 C 133.070312 19.40625 133.65625 19.527344 134.238281 19.671875 C 134.382812 19.71875 134.527344 19.746094 134.675781 19.792969 L 134.898438 19.863281 C 134.921875 19.863281 134.972656 19.886719 135.019531 19.910156 C 135.066406 19.933594 135.117188 19.957031 135.164062 19.984375 C 135.332031 20.082031 135.503906 20.226562 135.574219 20.46875 C 135.625 20.585938 135.652344 20.753906 135.574219 20.902344 C 135.476562 21.046875 135.332031 21.144531 135.210938 21.121094 C 135.089844 21.121094 134.992188 21.023438 135.015625 20.902344 L 135.015625 20.878906 L 135.039062 20.734375 C 135.0625 20.6875 135.015625 20.660156 134.992188 20.6875 C 134.96875 20.6875 134.96875 20.710938 134.96875 20.6875 C 134.96875 20.640625 134.894531 20.566406 134.824219 20.519531 C 134.796875 20.519531 134.796875 20.519531 134.773438 20.5 C 134.75 20.5 134.726562 20.476562 134.675781 20.476562 L 134.480469 20.402344 C 134.335938 20.355469 134.214844 20.304688 134.070312 20.28125 C 133.535156 20.113281 132.949219 19.992188 132.386719 19.871094 C 131.246094 19.65625 130.074219 19.585938 128.910156 19.558594 C 126.574219 19.511719 124.214844 19.824219 121.902344 20.234375 C 119.589844 20.617188 117.304688 21.125 115.015625 21.679688 C 113.875 21.964844 112.726562 22.257812 111.585938 22.542969 L 108.179688 23.460938 C 103.628906 24.664062 99.078125 25.988281 94.332031 26.566406 C 93.167969 26.6875 91.949219 26.761719 90.703125 26.613281 C 90.097656 26.542969 89.464844 26.421875 88.855469 26.15625 C 88.246094 25.914062 87.664062 25.53125 87.203125 25.003906 C 86.761719 24.476562 86.472656 23.824219 86.304688 23.195312 C 86.160156 22.546875 86.136719 21.894531 86.160156 21.269531 C 86.183594 21.175781 86.183594 21.078125 86.183594 20.984375 C 85.382812 21.707031 85.9375 21.007812 82.898438 23.730469 C 82.726562 23.894531 82.53125 24.015625 82.363281 24.164062 C 82.019531 24.429688 81.632812 24.503906 81.21875 24.429688 C 80.589844 24.355469 80.34375 24.066406 80.320312 23.464844 C 80.273438 22.667969 80.515625 21.921875 80.855469 21.226562 C 81.292969 20.289062 81.875 19.421875 82.65625 18.675781 C 83.410156 17.976562 84.285156 17.570312 85.382812 17.738281 C 85.722656 17.785156 86.039062 17.878906 86.332031 18.074219 C 86.648438 18.242188 86.671875 18.242188 86.792969 17.929688 C 87.085938 17.136719 87.402344 16.34375 87.746094 15.574219 C 89.207031 12.203125 91.101562 9.144531 93.679688 6.472656 C 95.140625 4.984375 96.625 3.515625 98.351562 2.3125 C 99.425781 1.566406 100.566406 0.914062 101.808594 0.480469 C 103.097656 0.0234375 104.363281 0 105.601562 0.648438 C 106.257812 1.011719 106.652344 1.5625 106.773438 2.261719 C 106.96875 3.125 106.917969 3.992188 106.699219 4.835938 C 106.429688 5.992188 105.871094 7.027344 105.214844 8.011719 C 103.949219 9.9375 102.367188 11.625 100.6875 13.234375 C 99.152344 14.679688 97.546875 15.953125 95.796875 17.066406 C 94.335938 17.953125 92.828125 18.726562 91.199219 19.253906 C 90.203125 19.570312 89.183594 19.808594 88.085938 19.691406 C 87.917969 19.667969 87.796875 19.691406 87.699219 19.789062 C 87.617188 20.296875 87.515625 20.800781 87.492188 21.332031 Z M 86.058594 19.574219 C 85.980469 19.234375 85.910156 18.898438 85.667969 18.632812 C 85.425781 18.320312 85.351562 18.296875 84.984375 18.417969 C 84.667969 18.511719 84.375 18.65625 84.109375 18.851562 C 83.015625 19.695312 82.261719 20.753906 81.726562 21.980469 C 81.53125 22.464844 81.363281 22.96875 81.339844 23.496094 C 81.339844 23.59375 81.289062 23.738281 81.414062 23.785156 C 81.535156 23.859375 81.632812 23.738281 81.730469 23.664062 C 81.875 23.542969 82.046875 23.421875 82.195312 23.300781 C 83.457031 22.195312 84.605469 20.96875 85.914062 19.882812 C 86.03125 19.816406 86.109375 19.71875 86.058594 19.574219 Z M 88.417969 19.261719 C 89.222656 19.238281 89.976562 19.023438 90.726562 18.757812 C 92.867188 18.035156 94.792969 16.953125 96.617188 15.679688 C 98.199219 14.59375 99.609375 13.320312 100.945312 11.96875 C 102.429688 10.476562 103.722656 8.863281 104.71875 7.035156 C 105.328125 5.902344 105.769531 4.746094 105.769531 3.472656 C 105.769531 2.894531 105.722656 2.316406 105.476562 1.761719 C 105.160156 0.96875 104.429688 0.582031 103.554688 0.703125 C 102.871094 0.800781 102.261719 1.066406 101.679688 1.351562 C 100.609375 1.90625 99.613281 2.578125 98.691406 3.347656 C 96.085938 5.464844 93.894531 7.945312 92.046875 10.6875 C 90.34375 13.191406 89.054688 15.886719 88.007812 18.703125 C 87.8125 19.234375 87.835938 19.285156 88.417969 19.261719 Z M 88.417969 19.261719 " fill-opacity="1" fill-rule="nonzero"/></g></svg>